<?xml version="1.0" encoding="utf-8"?>
<!-- Generator: Adobe Illustrator 26.0.0, SVG Export Plug-In . SVG Version: 6.00 Build 0)  -->
<svg version="1.1" id="Layer_1" xmlns="http://www.w3.org/2000/svg" xmlns:xlink="http://www.w3.org/1999/xlink" x="0px" y="0px"
	 viewBox="0 0 200 200" style="enable-background:new 0 0 200 200;" xml:space="preserve">
<style type="text/css">
	.st0{fill:#24BDC0;}
	.st1{fill:#FFFFFF;}
	.st2{fill:none;}
	.st3{fill:#F5C117;}
	.st4{fill:#FCAF25;}
</style>
<path class="st0" d="M198.12,48.3v98.88c0,0,0,5.63-8.38,8.45c-4.89,0-61.02,0-61.02,0v11.4c0,0,4.69,0.09,13,0
	c3.77,0.56,6.51,7.38,0,10.06c0,0-79.67,0-83.01,0c-5.11,0-5.7-10.09,0.48-10.09c7.48,0,12.1,0,12.1,0v-11.36c0,0-60.62,0-61.15,0
	s-8.65-3.15-8.25-10.2c0-2.9,0-98.72,0-97.11S0.88,38.15,13.15,38.15c2.37,0,12.11,0.06,12.37,0c0.46-0.22,46.91-23.17,68.7-6.05
	c1.23,0.59,4.85,5.1,5.19,5.54c0.28,0,0.59,0,0.93,0c4.12-5.43,19.33-24.25,73.81,0.36c2.47,0.64,13.43-0.05,13.91,0
	C189.25,38.22,198.12,39.94,198.12,48.3z"/>
<path class="st1" d="M185.66,143.3c0-0.97,0.05-94,0.05-94c-1.36-0.82-68.62-37.58-82.64-4.96c-0.16,4.99,0.24,91.15,0.24,91.15
	c0.81-0.48,16.67-22.04,81.23,7.8C185.02,143.59,185.66,143.71,185.66,143.3z"/>
<path class="st1" d="M184.55,143.29c0.3,0.1,0.99,0.52,0.99-0.42s0-93.58,0-93.58c-0.3-0.24-68.2-37.56-82.45-4.94
	c-0.08,4.11,0,89.56,0,91.33C104.77,134.55,120.07,113.61,184.55,143.29z"/>
<path class="st1" d="M14.55,143.29c-0.3,0.1-0.99,0.52-0.99-0.42s0-93.58,0-93.58c0.3-0.24,68.2-37.56,82.45-4.94
	c0.08,4.11,0,89.56,0,91.33C94.32,134.55,79.02,113.61,14.55,143.29z"/>
<path class="st2" d="M97.68,135.64c0-0.32,0-90.09,0-90.09c-0.56-1.69-8.78-34.55-82.8,3.79c-0.16,8.78,0,94.23,0,94.23
	s0.27,0.11,0.5,0s62.49-30.44,81.66-7.81C97.53,136.07,97.68,135.94,97.68,135.64z"/>
<path class="st3" d="M24.28,64.28c-0.11,0.17-0.79,0.52-1.11,0c-0.32-0.52-1.19-2.13-1.38-2.32c-0.19-0.19-0.18-0.46,0.27-0.7
	c0.45-0.17,21.01-10.62,43.6-13.6c4.55-0.6,16.35-1.31,22.55,3.93c0.11,0.17,0.53,0.58-0.21,1.46c0,0-1.26,1.46-1.44,1.54
	s-0.52,0.42-1.28-0.38c-0.34-0.34-2.24-2.66-9.26-3.27c-0.58,0-8.97-2.11-35.1,6.51C39.28,58.08,24.86,63.35,24.28,64.28z"/>
<path class="st3" d="M24.28,76.84c-0.11,0.17-0.79,0.52-1.11,0s-1.19-2.13-1.38-2.32c-0.19-0.19-0.18-0.46,0.27-0.7
	c0.45-0.17,21.01-10.62,43.6-13.6c4.55-0.6,16.35-1.31,22.55,3.93c0.11,0.17,0.53,0.58-0.21,1.46c0,0-1.26,1.46-1.44,1.54
	s-0.52,0.42-1.28-0.38c-0.34-0.34-2.24-2.66-9.26-3.27c-0.58,0-8.97-2.11-35.1,6.51C39.28,70.64,24.86,75.92,24.28,76.84z"/>
<path class="st3" d="M174.72,63.65c0.11,0.17,0.79,0.52,1.11,0c0.32-0.52,1.19-2.13,1.38-2.32c0.19-0.19,0.18-0.46-0.27-0.7
	c-0.45-0.17-21.01-10.62-43.6-13.6c-4.55-0.6-16.35-1.31-22.55,3.93c-0.11,0.17-0.53,0.58,0.21,1.46c0,0,1.26,1.46,1.44,1.54
	s0.52,0.42,1.28-0.38c0.34-0.34,2.24-2.66,9.26-3.27c0.58,0,8.97-2.11,35.1,6.51C159.72,57.45,174.14,62.72,174.72,63.65z"/>
<path class="st3" d="M174.72,76.21c0.11,0.17,0.79,0.52,1.11,0c0.32-0.52,1.19-2.13,1.38-2.32c0.19-0.19,0.18-0.46-0.27-0.7
	c-0.45-0.17-21.01-10.62-43.6-13.6c-4.55-0.6-16.35-1.31-22.55,3.93c-0.11,0.17-0.53,0.58,0.21,1.46c0,0,1.26,1.46,1.44,1.54
	s0.52,0.42,1.28-0.38c0.34-0.34,2.24-2.66,9.26-3.27c0.58,0,8.97-2.11,35.1,6.51C159.72,70.01,174.14,75.29,174.72,76.21z"/>
<path class="st3" d="M176.35,87.96c0.11,0.17,0.79,0.52,1.11,0c0.32-0.52,1.19-2.13,1.38-2.32c0.19-0.19,0.18-0.46-0.27-0.7
	c-0.45-0.17-21.01-10.62-43.6-13.6c-4.55-0.6-16.35-1.31-22.55,3.93c-0.11,0.17-0.53,0.58,0.21,1.46c0,0,1.26,1.46,1.44,1.54
	s0.52,0.42,1.28-0.38c0.34-0.34,2.24-2.66,9.26-3.27c0.58,0,8.97-2.11,35.1,6.51C161.35,81.76,175.77,87.03,176.35,87.96z"/>
<path class="st3" d="M176.35,100.95c0.11,0.17,0.79,0.52,1.11,0c0.32-0.52,1.19-2.13,1.38-2.32c0.19-0.19,0.18-0.46-0.27-0.7
	c-0.45-0.17-21.01-10.62-43.6-13.6c-4.55-0.6-16.35-1.31-22.55,3.93c-0.11,0.17-0.53,0.58,0.21,1.46c0,0,1.26,1.46,1.44,1.54
	s0.52,0.42,1.28-0.38c0.34-0.34,2.24-2.66,9.26-3.27c0.58,0,8.97-2.11,35.1,6.51C161.35,94.75,175.77,100.03,176.35,100.95z"/>
<path class="st3" d="M176.35,113.52c0.11,0.17,0.79,0.52,1.11,0c0.32-0.52,1.19-2.13,1.38-2.32c0.19-0.19,0.18-0.46-0.27-0.7
	c-0.45-0.17-21.01-10.62-43.6-13.6c-4.55-0.6-16.35-1.31-22.55,3.93c-0.11,0.17-0.53,0.58,0.21,1.46c0,0,1.26,1.46,1.44,1.54
	s0.52,0.42,1.28-0.38c0.34-0.34,2.24-2.66,9.26-3.27c0.58,0,8.97-2.11,35.1,6.51C161.35,107.32,175.77,112.59,176.35,113.52z"/>
<path class="st3" d="M176.35,124.79c0.11,0.17,0.79,0.52,1.11,0c0.32-0.52,1.19-2.13,1.38-2.32c0.19-0.19,0.18-0.46-0.27-0.7
	c-0.45-0.17-21.01-10.62-43.6-13.6c-4.55-0.6-16.35-1.31-22.55,3.93c-0.11,0.17-0.53,0.58,0.21,1.46c0,0,1.26,1.46,1.44,1.54
	s0.52,0.42,1.28-0.38c0.34-0.34,2.24-2.66,9.26-3.27c0.58,0,8.97-2.11,35.1,6.51C161.35,118.59,175.77,123.87,176.35,124.79z"/>
<path class="st4" d="M49.68,107.2c0.25-0.71,8.81-27.01,9.02-27.55c0.2-0.72,0.05-2.23-1.65-1.44c0,0-24.11,14.96-24.74,15.59
	c-0.04,0.15-0.64,1.36,1.62,1.57c0.97,0,6.99,0.71,7.02,0.8c0.12,0.12,0.19,0.38-0.39,0.87c-0.5,0.62-5.68,7.41-5.68,7.53
	c-0.9,1.09,0.78,5.33,3.68,3.19c0.51-0.55,6.54-8.48,6.54-8.48c0.13,0.36,2.42,7.8,3.14,8.12C48.52,107.64,49.28,107.99,49.68,107.2
	z"/>
</svg>
